<svg xmlns="http://www.w3.org/2000/svg" viewBox="0 0 591.66 207.28"><defs><style>.cls-1{fill:#fff;fill-rule:evenodd;}</style></defs><title>Asset 10</title><g id="Layer_2" data-name="Layer 2"><g id="Layer_1-2" data-name="Layer 1"><path class="cls-1" d="M497.29,33.27l-29,4q1.69-5.06,3.37-10.11h.68V25.85H473c.22-.9.45-1.79.67-2.69l1.35-.68V21.14l1.35-.68V19.11l2.69-2V15.74l1.35-.67,2-2.7h1.35l2-2.69h1.35l.67-1.35,2.7-.67.67-1.35,3.37-.67V5l2.7-.67V3.62l7.41-1.35C510.21.51,522.19-1.06,529,.92h4.72v.67h3.37v.68h2.7v.67h2.69v.67h2v.68h1.34V5h2v.68h1.34v.67h1.35l.68,1.35,2.69.67.68,1.35h1.34l2.7,3.37H560v.67l2,1.35v1.35l2,1.35,3.37,5.39h-.68c-2,1.67-6.47.49-9.43,1.34v.68h-4.72v.67l-12.8,1.35-1.35-2h-1.35l-.67-1.35H535v-.67h-1.35v-.68h-2v-.67h-2v-.68h-4c-11.17-3.2-26.23,4.25-28.31,12.14ZM.67,2.27C27.73,1.91,59.77-.29,75.47,11l2,2.69h.68v1.35c.44.23.89.45,1.34.67V17l1.35.67v1.42h.68v2h.67c.22,2,.45,4.05.67,6.07h.68c1,3.74-1,14.63-2,16.85h-.68v1.34h-.67c-.23.9-.45,1.8-.68,2.7l-2,1.35-3.37,4H72.78l-.68,1.35H70.75v.67c-1.59.71-3.89.79-5.39,1.35v.6l4.72.67v.75h1.35v.67l3.37.68.67,1.35h1.35l1.35,2h1.34c.23.67.45,1.34.68,2l2,1.34c3.72,5.65,4.18,13.33,4,22.91l-29.65,4v-.68c5-3.13,4.1-10.73,3.37-17.51H59.3c-.29-.88-.58-1.75-.88-2.63l-3.84-2.76H53.23v-.68H51.89V69c-5.94-2.57-18.8-1.35-27-1.35v31L.67,101.32v-99ZM109.84,2.2C136,1.88,164,.15,179.24,11l1.35,2,2.7,2v1.42l2,1.35v1.34H186c.22.9.45,1.8.67,2.7h.92c.23,1.35.45,2.69.68,4h.43v3.37h.67v6.06c.23.68.45,1.35.67,2h-.67v6.74h-.67c-.23,1.57-.45,3.14-.68,4.71-3.72,8.52-11,15.09-19.54,18.87,1.61,3.55,5.06,6.31,6.07,10.11-8.13.29-14.85,2.58-23.59,2.69-.63-3-2.6-3.89-3.37-6.74H134.09v9.44L109.84,86.5V2.2Zm105.79.07h24.93v66c-.76.57-.1-.08-.67.68l-24.26,2.69V2.27Zm70.75,0h24.94v56.6l-24.94,3.37v-60Zm52.56,0h31.24c.23.67.45,1.34.68,2h.43V5.64H372V7l1.35.68c.22.9.45,1.79.67,2.69l1.35.68,1.35,4,1.35.67v1.35h.67v1.35l1.35.67c.45,1.35.9,2.7,1.34,4.05l1.35.67,1.35,4,1.35.68c.22.9.45,1.79.67,2.69l1.35.68,1.35,4,1.35.67c.44,1.35.89,2.7,1.34,4l1.35.67V42.7c1,1.68,2.13,2.34,2.7,4.71l-24.94,2.7c-.45-1.35-.89-2.7-1.34-4l-1.35-.68-1.35-4-1.35-.67c-.45-1.35-.9-2.7-1.34-4L362.53,36c-1.22-1.92-.8-3.5-2.7-4.72v-.67h-.67v4.72c.63.7,1.36,14.81,1.35,16.84l-21.57,2.7V2.27Zm80.19,0h22.24V40.68l-16.18,2.69c-2,.56-3.63,0-5.39.68v-.68c-1.5-1.71-.67-7.81-.67-10.78V2.27ZM24.93,22.48V48.09c11,.25,29.57,1.43,31.67-6.74,1-1,2.34-8.07,1.35-10.78h-.67c-.23-.9-.45-1.8-.68-2.7l-2-1.34v-.68H53.23l-.67-1.35-4-.67v-.67H44.47c-5-1.46-13.35-.67-19.54-.68Zm109.16,0v31c9.27.25,19.42.16,24.94-3.37l.67-1.35,2-.67V46.74l1.35-.67c.23-1.13.45-2.25.67-3.37h.68c.78-2.35.61-9.39-.68-10.78-2.07-9.64-17.42-9.57-29.65-9.44Zm362.53,89v-1.35l-4-3.37v-1.34l-2-1.35c-.23-.9-.45-1.8-.68-2.7l-1.34-.67V99.3h-.68c-.22-.9-.45-1.8-.67-2.69h-.43c-.23-1.13-.45-2.25-.68-3.37h-.67c-.22-1.35-.45-2.7-.67-4h-.68c-.22-2-.45-4-.67-6.06h-.92c-.22-3.15-.45-6.29-.67-9.44-.63-2.23-1.55-14.39-.68-17.52h.68V50.78c.65-2.28,1.56-5.63,2-8.08l28.3-4.05-1.35,4.05h-.67v2h-.67v2h-.68v2.7h-.67v4h-.68v6.74h-.67V71h.67c.23,3.37.45,6.74.68,10.11,2.86,9.16,7.19,17.92,15.5,21.56h2c2.77,1.09,10.65,3.42,15.5,2V104h4v-.68h2v-.67h2V102h1.35c.23-.45.45-.9.67-1.35h1.6c.22-.45.44-.9.67-1.35h1.1l2-2.7,1.34-.67V94.58l2-1.34c.68-2,1.35-4,2-6.07h.67V85.82h.67v-2.7c1.76-5.25,2-10.75,2-18.19q-.35-7.41-.68-14.82H564c-.23-1.8-.45-3.59-.68-5.39h-.67V43.37H562v-2h-.68c-.22-.9-.45-1.8-.67-2.7H560V37.31l-1.34-.68V35.29h-.68l-.22-3,25.16-3.77C584.73,29.8,588,39.23,588.94,42v2.69c4.3,13,3.25,34.18-1.35,45.83-.22,1.35-.45,2.7-.67,4h-.68c-.45,1.35-.89,2.7-1.34,4h-.68V100h-.67c-.23.9-.45,1.8-.67,2.7l-1.35.67v1.35l-2,1.35v1.35l-3.37,2.69-4,4.72h-1.34l-.68,1.35-2,.67v.67l-2.69.68v.6l-4.05,1.35v.74l-6.06,1.35v.68h-2.7v.67h-3.37v.67h-5.39c-5.5,1.53-15.44.79-20.21-.67l-8.76-1.35v-.67h-2v-.68l-2.7-.67v-.67h-2l-.68-1.35-4-1.35-1.35-2h-1.35c-1.74-1.25-1.12-2.55-4-3.37ZM456.87,46.07v77.49h-31c-.7-1.37-2-2.75-2.7-4v-1.35l-1.34-.68-1.35-4-1.35-.67c-.22-.9-.45-1.8-.67-2.7l-1.35-.67-1.35-4-1.35-.67v-1.35h-.67V102h-.67v-1.35l-1.35-.68-1.35-4L409,95.26c-.45-1.35-.89-2.7-1.34-4.05l-1.35-.67-1.35-4-1.35-.68c-.22-.89-.45-1.79-.67-2.69l-1.35-.68-1.35-4-1.34-.67-1.35-4L396.22,73V71.67h-.67V70.33h-.68V69l-1.35-.68c-.45-1.34-.89-2.69-1.34-4-1.76-2.79-4.19-4.58-4.72-8.76l24.26-2.69c.22.67.45,1.34.67,2h.68v1.34h.67v1.35l1.35.68,1.35,4,1.34.67,1.35,4,1.35.67c.22.9.45,1.8.67,2.7l1.35.67,1.35,4,1.35.68c.45,1.34.89,2.69,1.34,4l1.35.67v1.35h.67v1.35l1.35.67,1.35,4,1.35.67v1.35c1,1.68,2.13,2.34,2.69,4.71H436V85.15c-1.51-1.71-.68-7.81-.68-10.78q-.33-12.47-.67-24.93l22.24-3.37ZM376,57.52v66H354.44V60.22L376,57.52Zm-49.19,6.75c.11,10.53.63,22.55-2,30.32v2.69h-.67v1.35h-.67v2h-.68c-.22.9-.45,1.79-.67,2.69h-.68c-.22.9-.45,1.8-.67,2.7l-1.35.67v1.35q-2.36,2-4.72,4l-3.37,4.05H310c-.23.45-.45.9-.68,1.34l-2.69.68v.67h-1.35v.68l-4,1.34v.61l-4,.67v.75h-2.7v.67H291.1c-4.76,1.41-14.73,2.24-20.21.67h-4.72v-.67H262.8v-.67h-2.7v-.68h-2v-.67h-2v-.68l-2.69-.67v-.67l-4.05-1.35-.67-1.35H247.3l-1.35-2h-1.34l-2.7-3.37-1.35-.67v-1.35l-2-1.35v-1.35l-1.35-.67c-4.37-6.92-6.14-17.7-6.06-29A57.32,57.32,0,0,0,246,75h4.72v-.67c1.93-.57,3.63,0,5.39-.68V85.82c1.35,1.56.52,4,1.35,6.07h.67v1.35h.68v2l1.34.67v1.35l1.35.67,2.7,3.37,6.06,2V104h4v.67h10.11V104h3.37v-.68h2v-.67l2.7-.67v-.68h1.35l1.34-2,2.7-2c4.64-6.59,4.19-18.28,4-29.65l24.93-3.36ZM190,123.56c-.23-.67-.45-1.35-.68-2h-.67v-1.35H188v-1.35l-1.35-.67v-1.42l-1.34-.68c-.23-.89-.45-1.79-.68-2.69l-1.34-.68v-1.27l-1.35-.67c-.23-.9-.45-1.8-.68-2.7l-1.34-.67V106l-1.35-.67c-.22-.9-.45-1.8-.68-2.7h-.67l-.67-2L175.2,100c-.23-.89-.45-1.79-.68-2.69l-1.34-.68V95.26l-1.35-.68c-.22-.89-.45-1.79-.67-2.69l-1.35-.68V89.87h-.68V88.52h-.67c-.61-.93-.45-1.18-.67-2.7l22.91-2.69q1.68,3,3.37,6.06l1.34.68v1.34l1.35.68v1.27l1.35.68v1.35l1.35.67v1.35l1.35.67v1.35l1.34.67v1.35l1.35.67v1.42l1.35.68v1.35h.67c.23.67.45,1.34.68,2l1.34.67v1.35l2,1.35V112c.44.23.89.45,1.34.67v1.35l1.35.68v1.34l1.35.68v1.35l1.35.67v1.42l1.34.67v1.35c.28.41.9.54,1.35,1.35Zm-40.44-35v35H125.33V91.89l24.26-3.37Zm-133.42,35V106.71a36.46,36.46,0,0,0,10.11-1.34H31v-.68h4.71V104h4.72v-.68H62v-.67l5.39-.67v-.75l4.05-1.35v-.67l30.32-4v.74h-.67V99.3h-.68v2h-.67v2h-.67c-.46,1.35-.9,2.7-1.35,4l-1.35.67v1.35q-2,1.68-4,3.37l-1.35,2H89.62L89,116.15l-2,.67v.67H85.58v.68l-4,1.35v.6l-4.05.67v.75H74.8v.67H71.43c-5,1.5-11.5,1.35-18.2,1.35ZM0,164.66c9.89-.25,23-.8,24.93,6.74,1.34,1.28,0,.36.67,2,1.79,4.5-.49,7.2-1.34,10.79-1.88,1.08-3.34,3.14-5.39,4-3.56,1.55-9.17,1.34-14.15,1.35v16.84H0V164.66Zm97,0h22.91v4.05H101.75v13.47H118.6v4H101.75V202.4h18.19v4H97V164.66Zm94.34,0c8.52-.23,22.62-.85,24.26,5.4,3.39,2.85,1.5,9,.67,12.8q-1.68,1.35-3.37,2.69v.68h-1.34v.67l-2,.67-.17,1.25c1.85,1.24.56.57,1.5,2.12h.68v1.35l1.34.68v1.34h.68v1.35l1.35.68c.22.89.45,1.79.67,2.69l1.35.67c.22.9.45,1.8.67,2.7l1.35.67v1.35h.67c.23.67.45,1.35.68,2h-6.07l-1.35-4-1.34-.68-1.35-4-1.35-.67-1.35-4-1.34-.68c-.49-.76-.59-3-1.35-3.37h-8.76v17.52h-4.72V164.66Zm98.38,0h22.91v4.05H294.47v13.47h16.85v4H294.47V202.4h18.19v4H289.75V164.66Zm94.34,0h4.72v41.78h-4.72V164.66Zm78.17,0c8.51-.23,22.62-.85,24.26,5.4,3.39,2.85,1.49,9,.67,12.8l-3.37,2.69v.68h-1.35v.67l-2,.67-.17,1.25c1.85,1.24.55.57,1.5,2.12h.67v1.35l1.35.68v1.34h.67v1.35l1.35.68c.23.89.45,1.79.68,2.69l1.34.67c.23.9.45,1.8.68,2.7l1.34.67v1.35h.68l.67,2h-6.06l-1.35-4-1.35-.68-1.35-4-1.34-.67-1.35-4-1.35-.68c-.49-.76-.59-3-1.35-3.37H467v17.52h-4.71V164.66Zm108.49,0h4.71l16.17,41.78h-5.39c-.43-5.08-3.63-8.8-4.71-13.48H564.68L559,207.28l-4.38-.84v-.67h.68c.22-1.12.45-2.25.67-3.37h.68v-2h.67V199h.67v-2h.68v-1.35h.67v-2H560v-1.35h.68c.22-1.12.45-2.25.67-3.37H562v-2h.67v-1.35h.67c.23-1.34.45-2.69.68-4h.67v-1.35h.68v-2H566v-1.35h.67v-2c1.35-3.05,3.55-6.13,4-10.11Zm-566,4.05v16.84h9.43c1.5-.48,2.84-1.59,4.72-2a8.73,8.73,0,0,1,2-2.69,46.1,46.1,0,0,0-.67-8.76c-1.44-.82-1.47-1.52-3.37-2-2-2.06-8.11-1.43-12.13-1.35Zm191.37,0v16.17h10.78v-.68l2.7-.67a14.72,14.72,0,0,1,2.69-3.37,45.29,45.29,0,0,0-.67-8.76l-2-.67-.68-1.35c-2.87-1.48-8.83-.69-12.8-.67Zm270.88,0v16.17h10.79v-.68l2.69-.67a15,15,0,0,1,2.7-3.37,46,46,0,0,0-.68-8.76l-2-.67-.67-1.35c-2.87-1.48-8.84-.69-12.81-.67Zm100,20.21h12.8q-3-9.09-6.07-18.19l-.68.08c-.55,6.62-5.22,11.6-6,18.11Z"/></g></g></svg>